<svg xmlns="http://www.w3.org/2000/svg" viewBox="0 0 31 31"><path d="M1 1h7v7h-7zM9 1h1v1h-1zM15 1h1v2h1v-2h1v1h1v2h1v2h1v-2h1v4h-1v-1h-1v1h-1v-1h-1v1h-1v-2h2v-1h-1v-1h-2v1h-1v1h1v2h-1v-1h-1v1h-1v-2h1v-2h1zM20 1h1v1h-1zM23 1h7v7h-7zM2 2v5h5v-5zM21 2h1v1h-1zM24 2v5h5v-5zM3 3h3v3h-3zM10 3h1v2h-1zM20 3h1v1h-1zM25 3h3v3h-3zM12 4h1v1h-1zM9 5h1v3h-1zM11 5h1v3h-1zM14 8h1v1h1v-1h1v3h-1v-1h-2zM18 8h1v1h3v3h-1v-2h-3zM2 9h7v1h-5v1h-1v-1h-1zM10 9h1v2h-2v-1h1zM24 9h2v2h-3v-1h1zM29 9h1v3h-2v-2h1zM1 10h1v2h-1zM12 10h1v1h-1zM7 11h1v1h-1zM15 11h1v1h-1zM17 11h1v1h-1zM19 11h1v1h1v1h-1v1h1v-1h1v-1h2v1h-1v2h1v-2h2v1h-1v1h1v1h-1v1h-1v2h-1v-1h-3v2h-2v-1h1v-4h-1v-1h1v-1h-1v-1h1zM26 11h1v1h-1zM2 12h1v1h-1zM4 12h1v1h-1zM9 12h2v3h1v1h-3v-2h-2v-1h2zM13 12h2v1h3v1h-1v1h1v2h-1v-1h-1v1h1v1h1v1h-4v-2h1v-1h-2v-1h1v-2h-1zM27 12h1v1h-1zM1 13h1v2h-1zM12 13h1v1h-1zM28 13h1v1h1v5h-1v-1h-1v1h1v2h1v1h-3v-1h1v-1h-1v1h-1v1h1v3h-1v1h-1v1h-1v-1h-2v1h1v1h1v1h2v1h-5v-3h-1v1h-1v-2h2v-1h-3v-2h-1v-1h1v-1h2v1h1v-1h1v-1h1v1h2v-1h1v-1h1v-2h1v-1h-1v-2h1zM3 14h1v1h-1zM2 15h1v1h1v-1h1v1h2v1h-3v1h-1v-1h-2v-1h1zM7 15h1v1h-1zM8 16h1v1h1v2h-1v-1h-2v-1h1zM12 16h1v1h-1zM20 16v1h1v-1zM22 16v1h1v-1zM26 16h1v1h-1zM25 17h1v2h-1zM1 18h1v4h-1zM5 18h1v3h-1v-1h-1v-1h1zM11 18h1v2h-1zM7 19h2v1h2v1h1v-1h1v-1h1v1h1v1h1v1h-2v1h-3v-1h-1v-1h-2v-1h-1zM24 19h1v1h-1zM17 20h1v1h-1zM20 20h1v1h-1zM4 21h1v1h-1zM6 21h2v1h-2zM9 22h1v1h1v2h1v-1h1v1h1v1h1v1h-3v1h1v2h-2v-1h-2zM22 22v3h3v-3zM1 23h7v7h-7zM15 23h2v1h-2zM19 23v1h1v-1zM23 23h1v1h-1zM28 23h2v3h-1v2h1v1h-1v1h-2v-1h1v-1h-1v-2h1v-1h1v-1h-1zM2 24v5h5v-5zM14 24h1v1h-1zM3 25h3v3h-3zM17 25h1v1h-1zM10 26v2h1v-2zM16 26h1v1h1v1h-1v1h2v1h-5v-2h1v1h1v-1h-1v-1h1zM25 27h1v1h-1z"/></svg>